<svg id="Capa_1" data-name="Capa 1" xmlns="http://www.w3.org/2000/svg" viewBox="0 0 200.62 167.44"><defs><style>.cls-1,.cls-2{fill:#ec4767;}.cls-2{font-size:42.53px;font-family:Gabriola;}.cls-3{letter-spacing:-0.07em;}.cls-4{letter-spacing:-0.01em;}</style></defs><title>logo-trend-boutique</title><path class="cls-1" d="M98,44.69H81v55.82c0,.88,3.11,2.91,3.7,3.35a32.38,32.38,0,0,0,26.34,6,42.39,42.39,0,0,0,9.75-3.21c10.39-4.79,17.42-15.54,18.83-26.85,1-8.42-1.67-16.62-6.52-23.47,0,0-7.44-9.57-17-11.69V63.83c0,.14,1.08.85,1.2,1A15.76,15.76,0,0,1,120,68c2.62,4.14,3,9.63,1.78,14.29C119.28,91.81,106.59,97,98,92Z" transform="translate(0 -0.56)"/><rect class="cls-1" x="60.79" y="31.9" width="56.36" height="12.23"/><path class="cls-1" d="M80.27,23.77v1.92a.43.43,0,0,0,.58.4,32.25,32.25,0,0,1,9.76-1.36,31,31,0,0,1,10.25,1.54.45.45,0,0,0,.58-.41V23.77a31.59,31.59,0,0,0-10.59-1.61,31.57,31.57,0,0,0-10.58,1.61Z" transform="translate(0 -0.56)"/><path class="cls-1" d="M95.52,14.58l-4.43-9.3-.24-.51-.24.51L85.75,15.49,78,8.68,80.1,22a33.79,33.79,0,0,1,10.75-1.56A33.66,33.66,0,0,1,101.58,22l2.15-13.3L96,15.49Z" transform="translate(0 -0.56)"/><path class="cls-1" d="M92.69,2.4A1.84,1.84,0,1,1,90.85.56,1.83,1.83,0,0,1,92.69,2.4" transform="translate(0 -0.56)"/><path class="cls-1" d="M78.52,6.43a1.44,1.44,0,0,0-.43-1,1.49,1.49,0,0,0-2.55,1A1.46,1.46,0,0,0,76,7.48a1.48,1.48,0,0,0,2.11,0,1.47,1.47,0,0,0,.43-1.05Z" transform="translate(0 -0.56)"/><path class="cls-1" d="M106.16,6.43a1.49,1.49,0,1,1-1.49-1.49,1.49,1.49,0,0,1,1.49,1.49" transform="translate(0 -0.56)"/><text class="cls-2" transform="translate(0 138.74)"><tspan class="cls-3">T</tspan><tspan class="cls-4" x="14.35" y="0">r</tspan><tspan x="26.48" y="0">end Boutique</tspan></text></svg>